<?xml version="1.0" standalone="no"?>
<!DOCTYPE svg PUBLIC "-//W3C//DTD SVG 20010904//EN"
 "http://www.w3.org/TR/2001/REC-SVG-20010904/DTD/svg10.dtd">
<svg version="1.0" xmlns="http://www.w3.org/2000/svg"
 width="1024.000000pt" height="1024.000000pt" viewBox="0 0 1024.000000 1024.000000"
 preserveAspectRatio="xMidYMid meet">

<g transform="translate(0.000000,1024.000000) scale(0.100000,-0.100000)"
fill="#000000" stroke="none">
<path d="M4920 9444 c-371 -33 -789 -125 -1130 -250 -964 -352 -1729 -974
-2253 -1831 -311 -509 -513 -1115 -577 -1728 -88 -837 59 -1650 431 -2386 232
-459 529 -858 869 -1165 509 -459 1060 -779 1680 -975 324 -102 587 -156 925
-191 180 -18 659 -15 830 5 514 62 980 197 1449 421 625 299 1231 819 1623
1393 358 524 572 1043 688 1669 48 257 64 402 71 644 21 706 -126 1382 -441
2025 -194 397 -546 874 -883 1196 -190 183 -462 394 -689 536 -517 323 -1100
532 -1707 614 -121 16 -221 21 -496 23 -190 2 -365 2 -390 0z m720 -294 c448
-45 934 -187 1345 -393 220 -109 429 -237 600 -365 673 -505 1165 -1170 1421
-1923 115 -341 194 -782 194 -1096 l0 -122 -32 -6 c-18 -3 -85 -5 -148 -3
l-115 3 -2 100 c-3 142 -22 385 -38 488 -38 237 -143 589 -236 784 -28 59 -60
128 -72 153 -75 160 -259 455 -386 620 -348 453 -715 764 -1229 1044 -402 219
-875 363 -1336 407 -116 11 -613 6 -716 -7 -40 -5 -50 -2 -90 30 -204 159
-486 161 -682 6 -72 -57 -133 -135 -169 -215 l-33 -74 -71 -27 c-143 -56 -350
-155 -499 -239 -280 -160 -511 -341 -766 -601 -212 -217 -380 -435 -553 -716
-275 -446 -437 -1038 -448 -1634 l-2 -111 -150 -6 c-82 -4 -153 -4 -159 -1
-12 8 -2 252 18 438 52 486 216 1002 443 1399 181 317 383 584 641 851 320
330 656 579 1045 774 572 285 1039 412 1685 456 88 6 426 -3 540 -14z m-375
-536 c19 -64 72 -127 127 -149 29 -12 83 -19 168 -23 133 -6 126 -19 -11 -21
-104 -1 -171 -23 -225 -73 -46 -43 -74 -108 -74 -175 0 -20 -4 -32 -10 -28 -5
3 -10 19 -10 35 0 48 -38 134 -73 168 -39 38 -121 72 -172 72 -19 0 -35 5 -35
10 0 6 11 10 24 10 47 0 152 39 178 67 37 39 66 108 75 179 l7 59 8 -40 c5
-22 15 -63 23 -91z m-722 97 c112 -48 181 -159 181 -291 0 -64 -4 -83 -28
-128 -90 -164 -318 -192 -448 -56 -81 86 -104 228 -52 332 65 131 223 196 347
143z m1527 -195 l31 -18 -33 -22 c-18 -12 -40 -37 -50 -56 l-16 -35 -7 28 c-8
29 -57 77 -81 77 -23 0 -16 14 16 32 17 9 40 33 51 53 l21 35 19 -38 c10 -21
33 -46 49 -56z m596 -127 c35 -13 94 -69 115 -110 51 -101 -3 -237 -113 -283
-78 -33 -177 -9 -232 55 -146 171 21 416 230 338z m-2836 -193 c0 -33 44 -83
80 -91 40 -9 48 -25 12 -25 -41 0 -79 -34 -93 -81 l-12 -40 -13 36 c-17 51
-42 74 -86 81 -47 8 -49 20 -4 28 43 8 85 47 92 86 8 36 24 40 24 6z m3275
-225 c30 -90 96 -145 190 -158 47 -6 63 -23 22 -23 -41 0 -125 -30 -155 -55
-39 -33 -61 -81 -76 -168 -14 -76 -13 -77 -36 35 -22 109 -98 171 -230 188
-49 6 -52 7 -25 13 17 4 50 12 75 18 120 27 171 96 193 255 l12 89 7 -75 c5
-41 15 -95 23 -119z m-1680 -62 c421 -402 588 -551 597 -535 8 14 44 16 266
16 141 0 287 -3 325 -7 l67 -6 0 -566 c0 -311 -3 -583 -6 -603 -4 -25 -13 -40
-26 -44 -17 -5 -18 -12 -13 -45 6 -32 4 -39 -9 -39 -9 0 -16 -8 -16 -20 0 -15
-7 -20 -25 -20 -23 0 -24 -4 -28 -62 l-3 -63 -2 68 -2 67 -70 0 -70 0 -2 -77
-2 -78 -3 73 -4 72 -34 0 c-19 0 -37 6 -42 13 -5 7 -10 -10 -14 -43 l-6 -55
-1 53 c-1 28 -6 52 -12 52 -6 0 -10 -97 -10 -270 l0 -270 -125 0 -125 0 -1
323 c0 177 0 549 1 827 1 402 -2 508 -12 521 -14 18 -203 159 -212 159 -3 0
-7 -411 -8 -912 -1 -502 -4 -863 -7 -801 -3 61 -9 115 -13 119 -5 4 -8 2 -8
-4 0 -7 -10 -12 -21 -12 -12 0 -30 -9 -39 -20 -11 -13 -24 -18 -35 -14 -13 5
-14 9 -3 15 9 6 7 9 -9 9 -19 0 -23 6 -24 30 -1 17 -3 35 -4 40 -1 6 -3 37 -4
69 l-1 59 -92 50 c-51 27 -107 57 -125 68 -17 10 -34 16 -36 14 -3 -3 -7 -55
-9 -117 -1 -61 0 -107 3 -101 4 6 15 2 28 -11 11 -11 21 -18 21 -15 0 3 14 -3
30 -13 17 -9 30 -21 30 -26 0 -5 -12 -2 -26 8 -17 11 -35 14 -52 11 -20 -5
-23 -4 -12 4 13 9 13 10 0 10 -23 0 -48 -20 -32 -27 22 -9 2 -23 -34 -23 -29
0 -34 4 -34 23 0 18 -2 19 -10 7 -5 -8 -10 -37 -10 -64 0 -74 -12 -47 -20 46
-6 72 -7 60 -9 -84 -1 -161 -2 -168 -21 -168 -20 0 -20 7 -21 293 -1 233 -3
281 -12 237 -9 -47 -11 -51 -18 -30 -4 14 -7 18 -8 8 -1 -11 -14 -18 -41 -23
-30 -5 -40 -11 -40 -26 0 -12 -7 -19 -20 -19 -17 0 -20 -7 -20 -40 l0 -40 -40
0 c-33 0 -40 -3 -40 -20 0 -13 -7 -20 -20 -20 -13 0 -20 -7 -20 -20 0 -13 -7
-20 -20 -20 -13 0 -20 -7 -20 -20 0 -17 -7 -20 -40 -20 -24 0 -41 5 -42 13 -1
6 -5 -46 -8 -118 l-5 -130 -468 -3 -467 -2 2 1050 3 1051 160 55 c88 30 277
94 420 143 380 130 741 258 762 270 10 6 20 10 23 11 3 0 95 -86 205 -191z
m560 172 c51 -23 102 -81 110 -124 7 -34 7 -34 59 -33 93 1 161 -74 136 -150
-21 -62 -30 -64 -279 -64 l-224 0 -36 27 c-65 48 -182 156 -176 161 3 4 40 9
83 12 67 4 77 8 80 25 7 50 14 66 39 96 31 37 95 69 138 69 17 0 48 -9 70 -19z
m-2687 -93 c35 -40 229 -256 391 -437 l75 -83 -72 4 -72 4 0 -697 c0 -382 -3
-699 -7 -702 -3 -4 -12 1 -18 10 -11 15 -15 15 -29 4 -9 -7 -16 -19 -16 -26 0
-8 -9 -10 -25 -7 -15 2 -25 0 -25 -7 0 -6 -4 -11 -10 -11 -6 0 -10 41 -10 103
0 146 -1 147 -65 147 -87 0 -85 3 -85 -126 l0 -114 65 0 c51 0 67 -4 72 -16 7
-19 -13 -34 -44 -34 -19 0 -23 -6 -23 -32 0 -52 -7 -56 -95 -53 -44 2 -96 0
-115 -3 -30 -6 -25 -8 35 -13 60 -5 53 -6 -51 -7 l-121 -2 -7 -71 c-3 -39 -9
-75 -11 -80 -3 -4 -30 -13 -60 -20 l-55 -12 -2 -41 c-6 -134 -16 512 -17 1111
l-1 702 -61 3 -61 3 133 155 c73 85 166 193 208 240 42 46 89 99 105 117 16
18 31 33 33 33 2 0 20 -19 41 -42z m4456 -467 l28 -13 -30 -15 c-16 -8 -38
-30 -48 -49 l-19 -34 -16 32 c-9 17 -31 39 -49 48 l-33 17 31 11 c21 7 38 23
48 46 l17 35 21 -32 c12 -18 35 -38 50 -46z m-267 -167 c63 -39 106 -115 106
-188 0 -96 -53 -174 -142 -212 -36 -16 -139 -15 -187 1 -19 6 -22 2 -27 -32
-12 -71 -91 -123 -189 -123 l-38 0 0 -205 0 -205 -40 0 -40 0 0 345 0 344 108
3 107 3 -3 61 c-6 99 43 183 133 226 58 28 151 20 212 -18z m-4999 -278 c26
-44 76 -75 135 -82 l51 -7 -63 -17 c-35 -10 -75 -27 -90 -37 -30 -23 -60 -92
-61 -143 -1 -60 -17 -67 -24 -10 -15 110 -60 173 -134 185 -47 8 -70 16 -57
21 6 1 29 8 52 14 83 21 127 80 140 189 l7 56 13 -69 c7 -38 21 -83 31 -100z
m5588 -100 c235 -62 372 -293 324 -545 -30 -159 -187 -319 -330 -338 l-37 -5
-6 141 -7 141 49 48 c63 61 72 104 39 170 -32 64 -66 86 -131 86 -90 0 -151
-62 -149 -152 0 -52 20 -84 72 -120 l40 -27 -3 -145 -2 -145 -35 3 c-19 2 -67
18 -106 37 -92 45 -173 130 -222 233 -30 63 -36 87 -40 165 -5 108 16 186 75
274 98 148 299 225 469 179z m-5816 -334 c0 -4 79 -100 176 -212 237 -276 237
-277 231 -348 -3 -31 -6 -95 -6 -140 0 -49 -4 -81 -9 -78 -12 7 -24 -48 -16
-69 5 -11 -1 -15 -20 -15 -14 0 -26 -4 -26 -10 0 -5 -7 -10 -15 -10 -8 0 -15
-9 -15 -20 0 -13 -7 -20 -20 -20 -13 0 -20 7 -20 20 0 13 -7 20 -20 20 -13 0
-20 -7 -20 -19 0 -15 -10 -19 -57 -24 -32 -3 -59 -11 -61 -17 -2 -5 -12 -10
-23 -10 -10 0 -18 -3 -17 -7 1 -5 -1 -24 -6 -43 -7 -30 -9 -32 -16 -15 -6 15
-9 9 -15 -30 -3 -27 -8 -56 -11 -63 -3 -10 -50 -12 -211 -10 l-208 3 -3 301
-2 301 57 79 c47 65 222 295 317 416 21 27 36 35 36 20z m5008 -289 c7 -16 65
-89 128 -163 142 -164 176 -209 167 -223 -3 -5 -1 -7 5 -3 20 12 24 -16 4 -30
-17 -11 -20 -21 -15 -49 4 -27 2 -35 -10 -35 -8 0 -14 8 -13 18 1 12 -6 17
-24 17 -20 0 -25 -4 -23 -23 2 -16 -1 -21 -9 -16 -8 5 -9 2 -5 -11 4 -9 3 -23
-2 -29 -5 -6 -11 -22 -14 -36 -3 -14 -4 -2 -2 25 l5 51 -53 -6 -52 -5 -3 -52
c-2 -29 -7 -53 -13 -53 -5 0 -9 5 -9 11 0 6 -7 3 -16 -5 -19 -19 -31 -20 -37
-3 -3 6 -6 -18 -6 -54 -1 -36 -4 -87 -7 -113 l-7 -46 -173 0 -174 0 2 367 3
367 165 62 c91 35 167 63 170 63 3 1 11 -11 18 -26z m1372 -383 c32 -32 26
-67 -14 -84 -24 -10 -44 -32 -71 -77 -82 -137 -100 -150 -151 -105 l-28 23 58
102 c47 84 67 108 104 132 54 34 75 36 102 9z m-5252 -77 c-15 -2 -42 -2 -60
0 -18 2 -6 4 27 4 33 0 48 -2 33 -4z m4199 -35 c-3 -8 -6 -5 -6 6 -1 11 2 17
5 13 3 -3 4 -12 1 -19z m-4930 -40 c-3 -8 -6 -5 -6 6 -1 11 2 17 5 13 3 -3 4
-12 1 -19z m3107 -113 c3 -9 0 -15 -9 -15 -8 0 -15 7 -15 15 0 8 4 15 9 15 5
0 11 -7 15 -15z m-3227 -440 c171 -28 332 -111 481 -250 l73 -67 -138 -142
c-76 -77 -141 -142 -145 -144 -4 -2 -27 12 -50 31 -112 90 -204 122 -353 122
-99 0 -115 -3 -155 -25 -56 -31 -96 -101 -85 -150 17 -79 88 -120 270 -159
323 -69 442 -128 539 -265 62 -88 78 -156 77 -329 -1 -117 -15 -180 -62 -276
-45 -92 -125 -181 -220 -245 -121 -81 -324 -133 -476 -122 -245 18 -407 92
-591 271 l-106 102 144 152 c80 83 147 151 151 151 3 0 33 -24 68 -54 117
-101 232 -146 376 -146 69 0 90 4 136 28 154 78 122 239 -59 295 -26 9 -103
27 -172 42 -225 48 -342 110 -433 227 -132 169 -149 412 -44 613 42 80 173
211 257 258 103 56 245 93 375 96 28 0 92 -6 142 -14z m1720 4 c375 -51 733
-357 817 -699 59 -242 33 -526 -68 -745 -99 -213 -297 -405 -511 -495 -131
-54 -240 -73 -390 -67 -152 6 -236 27 -370 92 -374 181 -602 588 -571 1022 16
228 125 452 303 624 165 159 324 234 583 273 52 7 131 6 207 -5z m2078 -4
c109 -17 183 -42 293 -97 80 -40 234 -155 256 -190 9 -15 -14 -42 -149 -177
l-159 -159 -45 39 c-158 139 -387 170 -578 78 -72 -35 -185 -148 -221 -222
-79 -160 -84 -342 -14 -500 109 -246 415 -366 694 -272 40 14 74 25 76 25 1 0
2 52 2 115 l0 115 -175 0 -175 0 0 210 0 210 402 0 401 0 -7 -441 -7 -441 -36
-31 c-123 -109 -280 -196 -438 -244 -82 -25 -105 -27 -265 -27 -203 -1 -259
10 -407 79 -114 54 -167 90 -260 178 -88 83 -166 199 -216 317 -96 228 -122
514 -66 710 141 496 607 804 1094 725z m2347 -12 c2 -5 2 -108 0 -230 l-3
-223 -541 0 -541 0 7 -37 c3 -21 6 -93 6 -160 l0 -123 410 0 410 0 0 -215 0
-215 -415 0 -415 0 0 -162 0 -163 539 3 539 3 4 -218 c2 -120 2 -228 0 -240
l-4 -23 -759 0 -759 0 0 1005 0 1005 759 0 c418 0 761 -3 763 -7z m-3562 -18
c85 -44 76 -165 -15 -195 -43 -14 -93 6 -118 49 -32 54 -12 116 45 144 41 21
52 21 88 2z m-1852 -43 c6 -9 12 -24 12 -34 0 -24 -35 -58 -60 -58 -24 0 -60
34 -60 55 0 9 11 27 25 41 27 27 59 26 83 -4z m5878 -356 c27 -27 34 -42 34
-72 -1 -74 -98 -624 -115 -650 -19 -29 -71 -54 -112 -54 -38 0 -91 34 -104 68
-12 29 -6 65 67 462 41 216 47 236 88 261 50 31 102 25 142 -15z m-7772 -29
c24 -24 23 -21 127 -466 l51 -214 -20 -26 c-42 -57 -125 -28 -138 48 -3 20
-19 90 -34 156 -15 66 -45 201 -65 299 l-38 179 27 24 c34 29 61 29 90 0z
m3793 -1347 c44 -26 66 -63 66 -111 0 -50 -28 -89 -76 -108 -47 -18 -82 -8
-125 35 -32 32 -34 38 -30 85 10 96 90 145 165 99z m-1899 -15 c64 -54 67
-131 6 -184 -57 -50 -126 -39 -172 29 -19 28 -22 42 -16 75 3 22 13 49 20 60
35 50 114 60 162 20z m1199 -525 c1 -41 0 -120 -3 -175 l-6 -100 -511 2 -512
2 -3 176 -2 175 517 -2 518 -3 2 -75z m617 64 c91 -31 146 -111 146 -211 0
-66 -20 -112 -66 -153 -55 -48 -90 -52 -360 -44 l-244 7 0 208 0 209 238 0
c194 0 247 -3 286 -16z m-2889 -57 c155 -200 389 -436 606 -613 143 -116 440
-321 569 -392 41 -23 127 -75 190 -117 212 -140 239 -150 680 -254 500 -118
629 -135 1010 -135 333 0 423 8 704 65 398 81 738 210 1141 432 400 221 793
561 1104 957 l83 105 130 5 c71 3 132 2 133 -1 9 -13 -206 -296 -326 -429
-495 -550 -1096 -943 -1776 -1160 -428 -138 -861 -200 -1288 -186 -319 10
-565 44 -850 116 -573 145 -1043 372 -1527 737 -195 147 -472 408 -620 583
-72 86 -248 323 -248 335 0 6 43 9 122 7 l123 -4 40 -51z m1139 -140 c-4 -95
-8 -174 -10 -176 -2 -2 -34 6 -71 17 -37 12 -187 48 -333 82 -146 33 -269 62
-274 63 -4 2 81 26 191 55 109 29 264 72 343 96 80 24 149 41 153 39 4 -3 5
-82 1 -176z m4368 136 c15 -14 18 -32 18 -128 0 -121 -7 -139 -52 -150 -21 -5
-33 -1 -52 19 -15 14 -26 34 -26 46 0 19 -6 20 -104 20 l-103 0 -6 51 c-4 29
-4 56 -1 60 3 5 50 9 105 9 99 0 100 0 110 27 23 61 72 81 111 46z m-1864 -33
l69 -40 702 0 701 0 0 -60 0 -60 -660 0 c-433 0 -660 -3 -660 -10 0 -5 -18
-10 -40 -10 -31 0 -56 -11 -110 -47 l-71 -46 -54 17 c-30 9 -55 21 -55 26 0 5
21 21 48 35 26 15 64 38 84 52 l38 26 -77 54 c-42 29 -80 53 -85 53 -35 0 46
42 94 49 3 1 37 -17 76 -39z m-197 -97 l29 -17 -34 -17 c-28 -13 -44 -15 -88
-7 -85 16 -89 24 -17 41 83 20 76 20 110 0z m1721 -370 c9 -10 19 -28 23 -41
21 -71 -169 -209 -340 -247 -153 -34 -383 -4 -428 57 -42 56 16 119 91 98 57
-15 245 -12 315 6 72 18 155 60 217 108 50 40 98 47 122 19z m-4038 -86 c60
-45 114 -89 119 -98 25 -41 -28 -107 -76 -95 -28 7 -184 117 -214 152 -38 43
-25 98 27 117 28 10 35 7 144 -76z m784 8 c60 -32 120 -105 147 -177 39 -104
2 -255 -80 -326 -67 -60 -112 -77 -200 -77 -105 1 -167 27 -235 102 -111 122
-108 313 7 425 78 74 116 89 228 85 66 -3 90 -8 133 -32z m2121 -59 c42 -22
89 -81 97 -121 21 -116 -79 -228 -190 -209 -60 9 -93 30 -121 73 -62 93 -32
202 70 255 38 20 107 20 144 2z m-1169 -310 l0 -164 -34 -4 c-76 -9 -91 19
-84 157 l3 75 -66 0 c-80 0 -79 1 -79 -115 l0 -83 66 -7 c43 -5 61 -11 53 -16
-12 -7 -11 -9 0 -9 34 0 -26 -29 -61 -30 -20 0 -40 -5 -43 -10 -4 -6 -10 -8
-14 -6 -4 3 -33 -8 -64 -23 l-57 -28 0 214 0 213 190 0 190 0 0 -164z m430
-41 l0 -206 -30 16 c-22 11 -64 15 -168 16 l-140 0 -6 31 c-8 41 -8 333 1 341
3 4 82 7 175 7 l168 0 0 -205z m492 -18 l49 -48 -38 -34 c-44 -40 -42 -40 -88
-21 -35 15 -75 67 -75 98 0 10 17 36 37 59 l37 41 15 -23 c8 -13 37 -45 63
-72z m471 58 c42 -39 46 -65 17 -113 -18 -29 -71 -62 -100 -62 -5 0 -28 16
-50 36 l-40 36 38 28 c44 32 82 76 82 96 0 22 12 17 53 -21z"/>
<path d="M6554 8286 c-87 -38 -84 -149 5 -186 63 -26 131 20 131 87 0 47 -22
81 -66 99 -39 16 -32 16 -70 0z"/>
<path d="M4525 7464 c-43 -13 -82 -27 -86 -32 -11 -11 2 -102 15 -101 6 0 49
13 96 28 l85 27 3 52 c4 62 4 62 -113 26z"/>
<path d="M3990 7322 l0 -89 83 19 c45 10 106 26 135 34 51 15 52 16 52 53 l0
38 -57 -15 c-67 -17 -144 -5 -187 29 l-26 20 0 -89z"/>
<path d="M5370 7207 l0 -115 108 -70 c59 -38 117 -75 130 -81 l22 -12 0 116
c0 63 -4 115 -8 115 -5 0 -58 34 -118 76 -60 42 -114 79 -121 81 -10 4 -13
-21 -13 -110z"/>
<path d="M4580 7208 c-25 -4 -66 -10 -92 -13 l-48 -6 0 -143 c0 -78 2 -145 5
-147 2 -3 47 9 99 26 l96 30 0 127 c0 70 -3 128 -7 130 -5 2 -28 0 -53 -4z"/>
<path d="M6417 7184 c-4 -4 -7 -43 -7 -86 l0 -79 68 3 67 3 0 80 0 80 -60 3
c-34 2 -64 0 -68 -4z"/>
<path d="M4135 7126 l-70 -11 -3 -129 -3 -128 23 6 c13 3 60 14 105 23 l83 18
0 118 0 117 -32 -1 c-18 -1 -64 -7 -103 -13z"/>
<path d="M5377 6793 c-5 -63 -3 -91 6 -99 23 -21 203 -131 225 -138 22 -7 22
-5 22 82 l0 90 -92 58 c-51 32 -104 66 -117 76 -13 10 -27 18 -31 18 -4 0 -10
-39 -13 -87z"/>
<path d="M4600 6785 c-8 -2 -48 -9 -87 -15 l-73 -12 0 -143 0 -142 78 18 c42
10 87 19 100 19 22 0 22 2 22 140 0 144 0 143 -40 135z"/>
<path d="M6410 6710 l0 -80 70 0 70 0 0 80 0 80 -70 0 -70 0 0 -80z"/>
<path d="M4190 6740 c-19 -4 -56 -11 -82 -14 l-47 -7 6 -137 c3 -75 7 -139 9
-141 2 -2 12 3 22 12 11 10 46 18 95 23 l77 7 0 133 c0 150 5 143 -80 124z"/>
<path d="M5371 6367 l-2 -112 78 -45 c87 -50 164 -89 176 -90 4 0 7 47 7 105
l0 104 -42 29 c-47 32 -202 122 -210 122 -3 0 -6 -51 -7 -113z"/>
<path d="M6410 6365 l0 -95 70 0 70 0 0 95 0 95 -70 0 -70 0 0 -95z"/>
<path d="M4521 6339 c-41 -5 -75 -10 -77 -11 -1 -2 -4 -63 -5 -136 -1 -87 2
-137 9 -144 8 -8 25 -7 64 5 29 9 70 19 91 23 l37 6 0 134 c0 154 15 138 -119
123z"/>
<path d="M4165 6314 c-49 -7 -91 -13 -92 -13 -2 -1 -3 -68 -3 -151 l0 -150 50
20 c28 11 73 20 100 20 l50 0 0 139 c0 77 -3 141 -7 144 -5 2 -48 -2 -98 -9z"/>
<path d="M6528 6073 c7 -3 16 -2 19 1 4 3 -2 6 -13 5 -11 0 -14 -3 -6 -6z"/>
<path d="M6433 6063 c9 -2 23 -2 30 0 6 3 -1 5 -18 5 -16 0 -22 -2 -12 -5z"/>
<path d="M4540 5893 c-25 -2 -60 -6 -77 -8 l-33 -6 0 -109 0 -110 105 0 105 0
0 120 0 120 -27 -2 c-16 -1 -48 -3 -73 -5z"/>
<path d="M4128 5868 l-58 -10 0 -105 0 -106 46 7 c26 3 71 6 100 6 l54 0 0
110 0 110 -42 -1 c-24 -1 -69 -6 -100 -11z"/>
<path d="M3108 7423 l-58 -4 0 -78 c0 -43 -3 -93 -6 -110 l-6 -31 71 0 71 0 0
115 c0 63 -3 114 -7 113 -5 -1 -34 -3 -65 -5z"/>
<path d="M3340 7315 l0 -115 64 0 c36 0 68 5 72 11 3 6 3 58 -1 115 l-7 104
-64 0 -64 0 0 -115z"/>
<path d="M3040 6950 l0 -120 49 0 c27 0 61 4 75 10 26 9 26 11 26 120 l0 110
-75 0 -75 0 0 -120z"/>
<path d="M3340 6950 l0 -120 65 0 65 0 0 110 c0 61 1 113 3 118 1 4 -28 8 -65
10 l-68 3 0 -121z"/>
<path d="M3044 6667 c-2 -7 -3 -55 -2 -107 l3 -95 68 -3 67 -3 0 111 0 110
-65 0 c-44 0 -67 -4 -71 -13z"/>
<path d="M3340 6565 l0 -116 68 3 67 3 3 113 3 112 -71 0 -70 0 0 -115z"/>
<path d="M3052 6263 c-4 -10 -7 -58 -7 -108 l0 -90 73 -3 73 -3 -3 108 -3 108
-63 3 c-52 2 -63 0 -70 -15z"/>
<path d="M3410 6030 c0 -5 11 -10 25 -10 14 0 25 5 25 10 0 6 -11 10 -25 10
-14 0 -25 -4 -25 -10z"/>
<path d="M7291 7264 c-33 -27 -56 -92 -46 -125 4 -10 17 -32 31 -48 95 -113
267 8 199 139 -32 62 -129 80 -184 34z"/>
<path d="M2463 6012 l-63 -3 0 -100 0 -100 71 3 72 3 -2 95 c-1 52 -5 97 -9
100 -4 3 -35 4 -69 2z"/>
<path d="M2000 5915 l0 -95 65 0 65 0 0 95 0 95 -65 0 -65 0 0 -95z"/>
<path d="M7050 6050 l0 -60 45 0 45 0 0 60 0 60 -45 0 -45 0 0 -60z"/>
<path d="M7354 5974 c-10 -52 4 -69 57 -69 l44 0 0 50 0 50 -47 3 -47 3 -7
-37z"/>
<path d="M7050 5841 c0 -28 0 -54 0 -58 0 -5 19 -8 43 -8 l42 0 0 55 0 55 -42
3 -43 3 0 -50z"/>
<path d="M7408 5883 c7 -3 16 -2 19 1 4 3 -2 6 -13 5 -11 0 -14 -3 -6 -6z"/>
<path d="M4003 4795 c-85 -23 -153 -63 -224 -132 -118 -114 -165 -236 -156
-408 12 -214 112 -372 291 -455 138 -65 271 -73 406 -25 291 103 422 452 278
745 -37 78 -148 192 -224 232 -105 56 -257 73 -371 43z m206 -282 c180 -58
239 -280 110 -410 -57 -58 -101 -77 -179 -78 -118 0 -211 73 -246 192 -13 46
-14 62 -3 106 23 96 84 165 171 192 58 18 86 18 147 -2z"/>
<path d="M4073 4352 c-74 -58 -28 -182 69 -182 35 0 85 43 93 79 8 36 -16 95
-43 110 -31 16 -94 13 -119 -7z"/>
<path d="M4685 2838 c-15 -14 -28 -38 -32 -60 -5 -32 -1 -41 25 -68 30 -30 31
-30 145 -30 64 0 123 3 132 6 21 8 45 56 45 89 0 16 -12 38 -29 56 -29 29 -31
29 -145 29 -105 0 -117 -2 -141 -22z"/>
<path d="M3880 2231 c-19 -10 -48 -37 -65 -60 -25 -36 -30 -52 -30 -105 0 -52
5 -70 28 -105 54 -81 139 -109 223 -72 27 12 57 29 68 39 27 24 56 91 56 130
0 65 -50 146 -112 178 -39 20 -126 18 -168 -5z"/>
<path d="M6115 2165 c-14 -13 -25 -31 -25 -40 0 -21 44 -65 65 -65 21 0 65 44
65 65 0 21 -44 65 -65 65 -9 0 -27 -11 -40 -25z"/>
<path d="M5250 1935 l0 -106 63 3 62 3 3 103 3 102 -66 0 -65 0 0 -105z"/>
</g>
</svg>
